<?xml version="1.0" encoding="UTF-8" standalone="no"?>
<!-- Created with Inkscape (http://www.inkscape.org/) -->

<svg
   width="24.595778mm"
   height="31.250912mm"
   viewBox="0 0 24.595778 31.250912"
   version="1.1"
   id="svg1"
   xml:space="preserve"
   inkscape:export-filename="candado.svg"
   inkscape:export-xdpi="96"
   inkscape:export-ydpi="96"
   xmlns:inkscape="http://www.inkscape.org/namespaces/inkscape"
   xmlns:sodipodi="http://sodipodi.sourceforge.net/DTD/sodipodi-0.dtd"
   xmlns="http://www.w3.org/2000/svg"
   xmlns:svg="http://www.w3.org/2000/svg"><sodipodi:namedview
     id="namedview1"
     pagecolor="#ffffff"
     bordercolor="#000000"
     borderopacity="0.25"
     inkscape:showpageshadow="2"
     inkscape:pageopacity="0.0"
     inkscape:pagecheckerboard="0"
     inkscape:deskcolor="#d1d1d1"
     inkscape:document-units="mm"><inkscape:page
       x="0"
       y="-1.6150276e-14"
       width="24.595778"
       height="31.250914"
       id="page2"
       margin="0"
       bleed="0" /></sodipodi:namedview><defs
     id="defs1" /><g
     inkscape:label="Capa 1"
     inkscape:groupmode="layer"
     id="layer1"
     transform="translate(-11.192749,-11.873056)"><path
       id="rect2-1-3"
       style="display:inline;fill:#bf5db6;fill-opacity:1;stroke-width:0.374164"
       d="m 23.527496,11.873056 c -6.771815,-2.78e-4 -12.313396,6.167666 -12.313377,13.64713 -0.01154,0.18241 -0.0064,0.361058 -0.01007,0.541743 -0.0068,0.05638 -0.0113,0.113582 -0.0113,0.171856 v 0.430205 15.046443 c 0,0.783342 0.62425,1.413538 1.399502,1.413538 h 21.796773 c 0.775252,0 1.399503,-0.630196 1.399503,-1.413538 V 26.233785 c 0,-0.06547 -0.0045,-0.129866 -0.01297,-0.19291 0.0086,-0.207335 0.01296,-0.415734 0.01297,-0.625394 5.2e-5,-7.479222 -5.489374,-13.54236 -12.260966,-13.542425 z m 6.670585,11.291131 -13.237167,0.01689 c 1.376121,-6.969303 11.087812,-7.556376 13.237167,-0.01689 z"
       sodipodi:nodetypes="sccscsssssccssccc" /><path
       id="rect2"
       style="fill:#000000;fill-opacity:0.418719;stroke-width:0.337848"
       d="m 23.313115,13.96864 c -6.102072,-2.52e-4 -11.095583,5.580417 -11.095566,12.347732 -0.0104,0.165042 -0.0058,0.32668 -0.0092,0.490162 -0.0061,0.05102 -0.01019,0.102766 -0.01019,0.155491 v 0.389244 13.61381 c 0,0.708758 0.562512,1.278949 1.261091,1.278949 h 19.64104 c 0.698579,0 1.261091,-0.570191 1.261091,-1.278949 V 26.962025 c 0,-0.05923 -0.0041,-0.1175 -0.01167,-0.174542 0.0077,-0.187593 0.01166,-0.37615 0.01167,-0.565848 C 34.361433,19.45454 29.41492,13.968698 23.313046,13.96864 Z m 0.0086,2.598059 c 4.554835,4.5e-5 8.282228,4.025576 8.574907,9.115862 H 14.747343 c 0.292679,-5.090286 4.019564,-9.115817 8.5744,-9.115862 z" /><path
       id="rect2-1"
       style="fill:#f4f4f4;fill-opacity:1;stroke-width:0.336155"
       d="m 23.656703,12.709225 c -5.990449,-2.54e-4 -10.892615,5.627566 -10.892598,12.452058 -0.01021,0.166437 -0.0057,0.329441 -0.009,0.494303 -0.006,0.05145 -0.01,0.103635 -0.01,0.156806 v 0.392533 13.728833 c 0,0.714746 0.552222,1.289755 1.238022,1.289755 h 19.281752 c 0.6858,0 1.238022,-0.575009 1.238022,-1.289755 V 25.812392 c 0,-0.05973 -0.004,-0.118493 -0.01146,-0.176017 0.0076,-0.189178 0.01145,-0.379328 0.01146,-0.570629 1.6e-5,-6.82427 -4.856012,-12.356462 -10.846266,-12.356521 z m 0.0084,2.62001 c 4.471515,4.6e-5 8.130724,4.059588 8.418049,9.192882 h -16.83553 c 0.287325,-5.133294 3.946035,-9.192836 8.417551,-9.192882 z" /><path
       id="path2"
       style="display:inline;fill:#990d8d;fill-opacity:1;stroke-width:0.307326"
       d="m 23.504789,28.911945 a 2.0545366,2.2217665 0 0 0 -2.054655,2.22157 2.0545366,2.2217665 0 0 0 0.644922,1.616439 v 0.918807 c 0,1.044151 0.623598,1.884639 1.397848,1.884639 0.774249,0 1.39733,-0.840488 1.39733,-1.884639 v -0.894519 a 2.0545366,2.2217665 0 0 0 0.66921,-1.640727 2.0545366,2.2217665 0 0 0 -2.054655,-2.22157 z" /></g></svg>
