<?xml version="1.0" encoding="UTF-8" standalone="no"?>
<!-- Created with Inkscape (http://www.inkscape.org/) -->

<svg
   version="1.1"
   id="svg1"
   width="390"
   height="360"
   viewBox="0 0 390 360"
   xmlns="http://www.w3.org/2000/svg"
   xmlns:svg="http://www.w3.org/2000/svg">
  <defs
     id="defs1" />
  <g
     id="g1"
     style="display:inline">
    <rect
       style="display:inline;fill:#25dfeb;fill-opacity:1;stroke-width:0.68065;stroke-dasharray:none"
       id="rect4"
       width="374.19827"
       height="351.99997"
       x="3.9639652"
       y="3.9639628"
       ry="41.379238" />
    <path
       id="rect3"
       style="display:inline;fill:#fbd29d;fill-opacity:1;stroke-width:0.420644;stroke-dasharray:none"
       d="m 222.14197,24.861446 c -14.72424,0 -27.23976,9.16505 -32.22822,22.14952 h -77.53904 c -5.42041,-10.07624 -16.020876,-16.8927 -28.264156,-16.8927 h -16.57905 c -17.79045,0 -32.11332,14.39088 -32.11332,32.26582 v 6.85024 c 0,9.66521 4.18715,18.31194 10.84606,24.21547 V 257.04351 c -6.05688,6.65255 -9.74248,15.52506 -9.74248,25.29341 v 7.94833 c 0,20.74038 16.61743,37.43673 37.25978,37.43673 h 72.989786 c 13.3505,0 25.01668,-6.98381 31.5936,-17.52901 h 88.9556 c 5.29726,10.46591 16.10737,17.60418 28.63691,17.60418 h 16.57906 c 17.79045,0 32.11331,-14.39088 32.11331,-32.26582 v -6.85025 c 0,-10.48097 -4.92416,-19.76408 -12.58426,-25.65049 V 113.971 c 11.45906,-5.63617 19.31395,-17.454784 19.31395,-31.183844 v -23.21942 c 0,-19.22714 -15.40599,-34.70629 -34.54225,-34.70629 z" />
    <path
       id="path2"
       style="display:inline;fill:#8aff91;fill-opacity:1;stroke-width:0.68819;stroke-dasharray:none"
       d="m 233.65873,39.864056 c -21.86917,0 -39.63993,17.00103 -40.9887,38.62072 l -80.55184,-0.12082 c -3.804,9.16509 -3.09102,22.283874 -42.998126,18.80293 -0.92125,3.305944 -1.16236,18.085314 -1.16236,21.672984 v 115.81248 c -10.15092,7.49927 -16.71533,19.58804 -16.71533,33.27396 0,22.86183 18.31776,41.26658 41.07154,41.26658 h 55.740026 c 16.63655,0 30.90152,-9.83882 37.36935,-24.06513 h 78.12556 c 23.53678,0 42.48509,-17.95113 42.48509,-40.24904 V 118.89625 c 14.42031,-6.3913 24.4377,-20.859614 24.4377,-37.765614 0,-22.86183 -18.31776,-41.26658 -41.07154,-41.26658 z m -163.515246,6.50525 c -12.76884,0 -23.04955,10.32819 -23.04955,23.15766 0,12.82948 10.28071,23.15767 23.04955,23.15767 h 13.5569 c 12.76884,0 23.049556,-10.32819 23.049556,-23.15767 0,-12.82947 -10.280716,-23.15766 -23.049556,-23.15766 z M 299.79191,276.89486 c -11.49417,0 -20.74753,9.2973 -20.74753,20.84605 0,11.54876 9.25336,20.84606 20.74753,20.84606 h 11.25622 c 11.49417,0 20.74754,-9.2973 20.74754,-20.84606 0,-11.54875 -9.25337,-20.84605 -20.74754,-20.84605 z" />
  </g>
</svg>
